<svg width="31" height="31" viewBox="0 0 31 31" fill="none" xmlns="http://www.w3.org/2000/svg">
<path d="M20.5094 0.400024H11.3063C2.89999 0.400024 0.900024 2.39999 0.900024 10.7906V19.9938C0.900024 28.4 2.88443 30.4 11.2906 30.4H20.4938C28.9001 30.4 30.9 28.4156 30.9 20.0093V10.8063C30.9 2.39999 28.9156 0.400024 20.5094 0.400024ZM25.1187 21.8062H22.9313C22.1032 21.8062 21.8532 21.1343 20.3688 19.65C19.0719 18.4 18.525 18.2437 18.1969 18.2437C17.7438 18.2437 17.6187 18.3687 17.6187 18.9937V20.9625C17.6187 21.4938 17.4469 21.8062 16.0563 21.8062C14.7069 21.7156 13.3983 21.3056 12.2383 20.6102C11.0784 19.9148 10.1002 18.9537 9.3844 17.8062C7.68506 15.6911 6.50268 13.2086 5.93131 10.5562C5.93131 10.2281 6.05627 9.93122 6.68131 9.93122H8.86877C9.43128 9.93122 9.63444 10.1812 9.85315 10.7594C10.9156 13.8844 12.7282 16.6031 13.4625 16.6031C13.7438 16.6031 13.8687 16.4782 13.8687 15.775V12.5562C13.775 11.0875 12.9938 10.9625 12.9938 10.4313C13.0041 10.2911 13.0686 10.1605 13.1736 10.0671C13.2786 9.97378 13.4159 9.92502 13.5563 9.93122H16.9938C17.4626 9.93122 17.6187 10.1656 17.6187 10.7281V15.0719C17.6187 15.5407 17.8219 15.6968 17.9625 15.6968C18.2438 15.6968 18.4625 15.5407 18.9781 15.025C20.0861 13.6738 20.9915 12.1684 21.6657 10.5562C21.7345 10.3623 21.8649 10.1961 22.037 10.0833C22.2091 9.9704 22.4135 9.917 22.6188 9.93122H24.8063C25.4625 9.93122 25.6032 10.2593 25.4625 10.7281C24.6666 12.5106 23.6818 14.2025 22.5251 15.775C22.2907 16.1344 22.1969 16.3219 22.5251 16.7437C22.7438 17.0719 23.5094 17.7125 24.0251 18.3218C24.775 19.07 25.3978 19.9355 25.8687 20.8844C26.0562 21.4938 25.7438 21.8062 25.1187 21.8062Z" fill="#4465E8"/>
</svg>
