<svg width="25" height="31" viewBox="0 0 25 31" fill="none" xmlns="http://www.w3.org/2000/svg">
<path d="M20.4 0.400024H2.40002C2.0022 0.400024 1.62067 0.55806 1.33936 0.839364C1.05806 1.12067 0.900024 1.5022 0.900024 1.90002V28.9C0.900024 29.2979 1.05806 29.6794 1.33936 29.9607C1.62067 30.242 2.0022 30.4 2.40002 30.4H20.4C21.5935 30.4 22.7381 29.9259 23.582 29.082C24.4259 28.2381 24.9 27.0935 24.9 25.9V4.90002C24.9 3.70655 24.4259 2.56196 23.582 1.71804C22.7381 0.87413 21.5935 0.400024 20.4 0.400024ZM6.90002 27.4H3.90002V3.40002H6.90002V27.4ZM21.9 25.9C21.9 26.2979 21.742 26.6794 21.4607 26.9607C21.1794 27.242 20.7978 27.4 20.4 27.4H9.90002V3.40002H20.4C20.7978 3.40002 21.1794 3.55806 21.4607 3.83936C21.742 4.12067 21.9 4.5022 21.9 4.90002V25.9Z" fill="white"/>
</svg>
