<svg width="25" height="31" viewBox="0 0 25 31" fill="none" xmlns="http://www.w3.org/2000/svg">
<path d="M23.4 7.90002H18.9V6.40002C18.9 4.80872 18.2678 3.2826 17.1426 2.15738C16.0174 1.03217 14.4913 0.400024 12.9 0.400024C11.3087 0.400024 9.78254 1.03217 8.65732 2.15738C7.5321 3.2826 6.89996 4.80872 6.89996 6.40002V7.90002H2.39996C2.00214 7.90002 1.62061 8.05806 1.3393 8.33936C1.058 8.62067 0.899963 9.0022 0.899963 9.40002V25.9C0.899963 27.0935 1.37407 28.2381 2.21798 29.082C3.0619 29.9259 4.20649 30.4 5.39996 30.4H20.4C21.5934 30.4 22.738 29.9259 23.5819 29.082C24.4259 28.2381 24.9 27.0935 24.9 25.9V9.40002C24.9 9.0022 24.7419 8.62067 24.4606 8.33936C24.1793 8.05806 23.7978 7.90002 23.4 7.90002ZM9.89996 6.40002C9.89996 5.60437 10.216 4.84131 10.7786 4.2787C11.3413 3.71609 12.1043 3.40002 12.9 3.40002C13.6956 3.40002 14.4587 3.71609 15.0213 4.2787C15.5839 4.84131 15.9 5.60437 15.9 6.40002V7.90002H9.89996V6.40002ZM21.9 25.9C21.9 26.2978 21.7419 26.6794 21.4606 26.9607C21.1793 27.242 20.7978 27.4 20.4 27.4H5.39996C5.00214 27.4 4.62061 27.242 4.3393 26.9607C4.058 26.6794 3.89996 26.2978 3.89996 25.9V10.9H6.89996V12.4C6.89996 12.7978 7.058 13.1794 7.3393 13.4607C7.62061 13.742 8.00214 13.9 8.39996 13.9C8.79779 13.9 9.17932 13.742 9.46062 13.4607C9.74193 13.1794 9.89996 12.7978 9.89996 12.4V10.9H15.9V12.4C15.9 12.7978 16.058 13.1794 16.3393 13.4607C16.6206 13.742 17.0021 13.9 17.4 13.9C17.7978 13.9 18.1793 13.742 18.4606 13.4607C18.7419 13.1794 18.9 12.7978 18.9 12.4V10.9H21.9V25.9Z" fill="#4465E8"/>
</svg>
