<svg width="20" height="21" viewBox="0 0 20 21" fill="none" xmlns="http://www.w3.org/2000/svg">
<path d="M11.905 16.561C12.1624 16.561 12.4093 16.4588 12.5913 16.2768C12.7733 16.0948 12.8756 15.8479 12.8756 15.5905V13.6494C12.8756 13.392 12.7733 13.1451 12.5913 12.9631C12.4093 12.7811 12.1624 12.6788 11.905 12.6788C11.6476 12.6788 11.4008 12.7811 11.2188 12.9631C11.0367 13.1451 10.9345 13.392 10.9345 13.6494V15.5905C10.9345 15.8479 11.0367 16.0948 11.2188 16.2768C11.4008 16.4588 11.6476 16.561 11.905 16.561ZM8.02283 16.561C8.28023 16.561 8.5271 16.4588 8.70911 16.2768C8.89112 16.0948 8.99338 15.8479 8.99338 15.5905V13.6494C8.99338 13.392 8.89112 13.1451 8.70911 12.9631C8.5271 12.7811 8.28023 12.6788 8.02283 12.6788C7.76542 12.6788 7.51856 12.7811 7.33654 12.9631C7.15453 13.1451 7.05228 13.392 7.05228 13.6494V15.5905C7.05228 15.8479 7.15453 16.0948 7.33654 16.2768C7.51856 16.4588 7.76542 16.561 8.02283 16.561ZM16.7578 4.91442H15.4184L13.7394 1.56602C13.6881 1.44281 13.6119 1.33151 13.5156 1.23907C13.4194 1.14663 13.3051 1.07503 13.1799 1.02876C13.0547 0.982491 12.9213 0.962536 12.7881 0.970146C12.6548 0.977755 12.5246 1.01276 12.4055 1.07299C12.2864 1.13321 12.181 1.21735 12.0958 1.32015C12.0107 1.42295 11.9477 1.5422 11.9108 1.67044C11.8738 1.79869 11.8637 1.93318 11.8811 2.06551C11.8985 2.19784 11.943 2.32516 12.0118 2.43951L13.2444 4.91442H6.68347L7.91607 2.43951C8.01027 2.21328 8.01541 1.95979 7.93045 1.72993C7.84549 1.50007 7.67672 1.31086 7.45803 1.20028C7.23933 1.0897 6.9869 1.06595 6.75142 1.13379C6.51594 1.20163 6.31483 1.35604 6.18848 1.56602L4.50943 4.91442H3.17007C2.48407 4.92485 1.82379 5.17719 1.30569 5.62693C0.787581 6.07667 0.444929 6.69492 0.338165 7.37264C0.231401 8.05036 0.367384 8.74401 0.72213 9.33125C1.07688 9.9185 1.6276 10.3616 2.27716 10.5824L2.99537 17.8228C3.06779 18.5435 3.40625 19.2113 3.94464 19.6958C4.48303 20.1804 5.1827 20.4469 5.90702 20.4432H14.0402C14.7646 20.4469 15.4642 20.1804 16.0026 19.6958C16.541 19.2113 16.8795 18.5435 16.9519 17.8228L17.6701 10.5824C18.3211 10.361 18.8727 9.91622 19.2272 9.32701C19.5817 8.73781 19.7162 8.04215 19.6069 7.36326C19.4976 6.68437 19.1516 6.06606 18.6301 5.61785C18.1087 5.16964 17.4454 4.92045 16.7578 4.91442ZM15.0011 17.6286C14.977 17.8689 14.8641 18.0915 14.6847 18.253C14.5052 18.4145 14.272 18.5034 14.0305 18.5021H5.89732C5.65588 18.5034 5.42265 18.4145 5.24319 18.253C5.06373 18.0915 4.95091 17.8689 4.92677 17.6286L4.23768 10.7377H15.6902L15.0011 17.6286ZM16.7578 8.79663H3.17007C2.91266 8.79663 2.6658 8.69437 2.48379 8.51236C2.30177 8.33034 2.19952 8.08348 2.19952 7.82608C2.19952 7.56867 2.30177 7.32181 2.48379 7.13979C2.6658 6.95778 2.91266 6.85552 3.17007 6.85552H16.7578C17.0152 6.85552 17.2621 6.95778 17.4441 7.13979C17.6261 7.32181 17.7283 7.56867 17.7283 7.82608C17.7283 8.08348 17.6261 8.33034 17.4441 8.51236C17.2621 8.69437 17.0152 8.79663 16.7578 8.79663Z" fill="#AAACB6"/>
</svg>
