<svg width="19" height="20" viewBox="0 0 19 20" fill="none" xmlns="http://www.w3.org/2000/svg">
<path d="M18.2564 12.6493C18.2542 12.0667 18.0773 11.4982 17.7486 11.0172C17.4198 10.5362 16.9543 10.1648 16.4123 9.95121L18.2272 3.15735C18.2651 3.01266 18.2691 2.86117 18.2388 2.7147C18.2085 2.56822 18.1448 2.43074 18.0525 2.31297C17.9583 2.20262 17.8404 2.11483 17.7078 2.05604C17.5751 1.99725 17.4309 1.96897 17.2858 1.97328H3.98924L3.66896 0.750383C3.61328 0.543569 3.49075 0.360983 3.32046 0.231075C3.15018 0.101167 2.9417 0.0312349 2.72753 0.0321749H0.786423V1.97328H1.9802L4.38717 10.9606C4.44404 11.1723 4.57093 11.3586 4.74717 11.489C4.92341 11.6194 5.13861 11.6863 5.35772 11.6788H15.3447C15.6021 11.6788 15.849 11.781 16.031 11.9631C16.213 12.1451 16.3152 12.3919 16.3152 12.6493C16.3152 12.9068 16.213 13.1536 16.031 13.3356C15.849 13.5176 15.6021 13.6199 15.3447 13.6199H2.72753C2.47012 13.6199 2.22326 13.7222 2.04124 13.9042C1.85923 14.0862 1.75697 14.333 1.75697 14.5904C1.75697 14.8479 1.85923 15.0947 2.04124 15.2767C2.22326 15.4587 2.47012 15.561 2.72753 15.561H3.87278C3.71316 16.0008 3.66186 16.4726 3.72324 16.9364C3.78463 17.4002 3.95687 17.8424 4.2254 18.2255C4.49392 18.6086 4.85082 18.9214 5.26586 19.1374C5.6809 19.3533 6.14187 19.466 6.60973 19.466C7.07759 19.466 7.53856 19.3533 7.9536 19.1374C8.36865 18.9214 8.72554 18.6086 8.99407 18.2255C9.26259 17.8424 9.43484 17.4002 9.49622 16.9364C9.5576 16.4726 9.50631 16.0008 9.34669 15.561H11.6372C11.4919 15.9615 11.4362 16.3889 11.4741 16.8132C11.512 17.2375 11.6426 17.6484 11.8566 18.0167C12.0706 18.3851 12.3628 18.702 12.7126 18.9451C13.0624 19.1882 13.4613 19.3516 13.8812 19.4237C14.301 19.4959 14.7316 19.475 15.1425 19.3626C15.5534 19.2502 15.9346 19.049 16.2593 18.7732C16.584 18.4974 16.8442 18.1537 17.0215 17.7664C17.1989 17.3791 17.2891 16.9575 17.2858 16.5316C17.284 16.0301 17.1501 15.538 16.8976 15.1048C17.3126 14.8432 17.6548 14.4809 17.8923 14.0516C18.1299 13.6223 18.2551 13.14 18.2564 12.6493ZM14.4615 9.73769H6.12446L4.51334 3.91438H16.0241L14.4615 9.73769ZM6.60973 17.5021C6.41778 17.5021 6.23013 17.4452 6.07052 17.3385C5.91092 17.2319 5.78652 17.0803 5.71306 16.903C5.6396 16.7256 5.62038 16.5305 5.65783 16.3422C5.69528 16.1539 5.78771 15.981 5.92345 15.8453C6.05918 15.7095 6.23212 15.6171 6.42039 15.5796C6.60866 15.5422 6.8038 15.5614 6.98115 15.6349C7.15849 15.7083 7.31007 15.8327 7.41672 15.9923C7.52336 16.1519 7.58028 16.3396 7.58028 16.5316C7.58028 16.789 7.47803 17.0358 7.29602 17.2178C7.114 17.3999 6.86714 17.5021 6.60973 17.5021ZM14.3741 17.5021C14.1822 17.5021 13.9945 17.4452 13.8349 17.3385C13.6753 17.2319 13.5509 17.0803 13.4775 16.903C13.404 16.7256 13.3848 16.5305 13.4222 16.3422C13.4597 16.1539 13.5521 15.981 13.6879 15.8453C13.8236 15.7095 13.9965 15.6171 14.1848 15.5796C14.3731 15.5422 14.5682 15.5614 14.7456 15.6349C14.9229 15.7083 15.0745 15.8327 15.1811 15.9923C15.2878 16.1519 15.3447 16.3396 15.3447 16.5316C15.3447 16.789 15.2424 17.0358 15.0604 17.2178C14.8784 17.3999 14.6316 17.5021 14.3741 17.5021Z" fill="white" fill-opacity="0.56"/>
</svg>
