<svg width="11" height="11" viewBox="0 0 11 11" fill="none" xmlns="http://www.w3.org/2000/svg">
<path d="M3.06249 2.25007C2.90179 2.25007 2.7447 2.29772 2.61109 2.387C2.47747 2.47627 2.37333 2.60317 2.31184 2.75163C2.25034 2.9001 2.23425 3.06347 2.2656 3.22108C2.29695 3.37869 2.37433 3.52346 2.48796 3.63709C2.60159 3.75072 2.74637 3.8281 2.90398 3.85945C3.06159 3.8908 3.22495 3.87471 3.37342 3.81322C3.52188 3.75172 3.64878 3.64758 3.73806 3.51397C3.82734 3.38035 3.87499 3.22326 3.87499 3.06257C3.87499 2.84708 3.78939 2.64041 3.63701 2.48804C3.48464 2.33567 3.27798 2.25007 3.06249 2.25007ZM10.44 4.80132L5.88457 0.240482C5.83396 0.190279 5.77393 0.150561 5.70794 0.123606C5.64194 0.0966498 5.57128 0.0829862 5.49999 0.0833983H0.624989C0.48133 0.0833983 0.343555 0.140467 0.241973 0.242049C0.14039 0.343631 0.083322 0.481406 0.083322 0.625065V5.50007C0.0829099 5.57135 0.0965735 5.64202 0.123529 5.70801C0.150485 5.77401 0.190203 5.83404 0.240405 5.88465L4.80124 10.4401C5.10593 10.7444 5.51895 10.9153 5.94957 10.9153C6.3802 10.9153 6.79322 10.7444 7.09791 10.4401L10.44 7.12507C10.7443 6.82038 10.9152 6.40736 10.9152 5.97673C10.9152 5.54611 10.7443 5.13309 10.44 4.8284V4.80132ZM9.67624 6.32882L6.32874 9.6709C6.22725 9.77179 6.08996 9.82841 5.94686 9.82841C5.80376 9.82841 5.66648 9.77179 5.56499 9.6709L1.16666 5.27798V1.16673H5.27791L9.67624 5.56507C9.72644 5.61568 9.76616 5.6757 9.79312 5.7417C9.82007 5.80769 9.83373 5.87836 9.83332 5.94965C9.83272 6.09175 9.77631 6.22792 9.67624 6.32882Z" fill="#707070"/>
</svg>
