<svg width="400" height="400" viewBox="0 0 400 400" fill="none" xmlns="http://www.w3.org/2000/svg">
<rect width="400" height="400" fill="#4465E8"/>
<g clip-path="url(#clip0)">
<mask id="path-1-outside-1" maskUnits="userSpaceOnUse" x="108.112" y="102.989" width="185" height="220" fill="black">
<rect fill="white" x="108.112" y="102.989" width="185" height="220"/>
<path fill-rule="evenodd" clip-rule="evenodd" d="M123.112 117.989V214.829L155.23 182.711V163.733L200.487 209.476L245.743 164.219V255.219L277.861 287.824V117.989H245.743L200.487 164.219L155.23 117.989H123.112ZM123.118 241.594V287.337L191.241 218.722L168.369 195.85"/>
</mask>
<path fill-rule="evenodd" clip-rule="evenodd" d="M123.112 117.989V214.829L155.23 182.711V163.733L200.487 209.476L245.743 164.219V255.219L277.861 287.824V117.989H245.743L200.487 164.219L155.23 117.989H123.112ZM123.118 241.594V287.337L191.241 218.722L168.369 195.85" fill="url(#paint0_linear)"/>
<path d="M123.112 117.989V103.609H108.732V117.989H123.112ZM123.112 214.829H108.732V249.545L133.281 224.997L123.112 214.829ZM155.23 182.711L165.398 192.879L169.61 188.668V182.711H155.23ZM155.23 163.733L165.452 153.619L140.85 128.752V163.733H155.23ZM200.487 209.476L190.264 219.59L200.432 229.867L210.655 219.644L200.487 209.476ZM245.743 164.219H260.123V129.503L235.575 154.051L245.743 164.219ZM245.743 255.219H231.363V261.112L235.499 265.311L245.743 255.219ZM277.861 287.824L267.617 297.915L292.241 322.912V287.824H277.861ZM277.861 117.989H292.241V103.609H277.861V117.989ZM245.743 117.989V103.609H239.697L235.468 107.93L245.743 117.989ZM200.487 164.219L190.211 174.279L200.487 184.775L210.762 174.279L200.487 164.219ZM155.23 117.989L165.506 107.93L161.276 103.609H155.23V117.989ZM123.118 287.337H108.738V322.231L133.323 297.468L123.118 287.337ZM191.241 218.722L201.445 228.853L211.54 218.685L201.409 208.554L191.241 218.722ZM108.732 117.989V214.829H137.492V117.989H108.732ZM133.281 224.997L165.398 192.879L145.062 172.543L112.944 204.661L133.281 224.997ZM169.61 182.711V163.733H140.85V182.711H169.61ZM145.008 173.846L190.264 219.59L210.709 199.362L165.452 153.619L145.008 173.846ZM210.655 219.644L255.912 174.387L235.575 154.051L190.318 199.308L210.655 219.644ZM231.363 164.219V255.219H260.123V164.219H231.363ZM235.499 265.311L267.617 297.915L288.105 277.732L255.988 245.128L235.499 265.311ZM292.241 287.824V117.989H263.481V287.824H292.241ZM277.861 103.609H245.743V132.369H277.861V103.609ZM235.468 107.93L190.211 154.16L210.762 174.279L256.019 128.049L235.468 107.93ZM210.762 154.16L165.506 107.93L144.954 128.049L190.211 174.279L210.762 154.16ZM155.23 103.609H123.112V132.369H155.23V103.609ZM108.738 241.594V287.337H137.498V241.594H108.738ZM133.323 297.468L201.445 228.853L181.036 208.59L112.913 277.205L133.323 297.468ZM201.409 208.554L178.537 185.682L158.201 206.018L181.072 228.89L201.409 208.554Z" fill="#4465E8" mask="url(#path-1-outside-1)"/>
</g>
<defs>
<linearGradient id="paint0_linear" x1="278" y1="118" x2="207" y2="267.5" gradientUnits="userSpaceOnUse">
<stop stop-color="white"/>
<stop offset="1" stop-color="white" stop-opacity="0"/>
</linearGradient>
<clipPath id="clip0">
<rect width="182" height="191.246" fill="white" transform="translate(109 103.877)"/>
</clipPath>
</defs>
</svg>
