<svg width="460" height="272" viewBox="0 0 460 272" fill="none" xmlns="http://www.w3.org/2000/svg">
<path d="M458 5.53371C458 3.68249 456.34 2.27306 454.513 2.5735L4.51312 76.5867C3.06366 76.8251 2 78.0779 2 79.5469V267C2 268.657 3.34314 270 5 270H455C456.657 270 458 268.657 458 267V5.53371Z" fill="white"/>
<path d="M454.351 1.58676C456.786 1.18617 459 3.06541 459 5.53371V267C459 269.209 457.209 271 455 271H5C2.79086 271 1 269.209 1 267V79.5469C1 77.5883 2.41821 75.9178 4.35083 75.5999L454.351 1.58676Z" stroke="#4465E8" stroke-opacity="0.2" stroke-width="2"/>
</svg>
