<svg width="460" height="272" viewBox="0 0 460 272" fill="none" xmlns="http://www.w3.org/2000/svg">
<path d="M2 5.53371C2 3.68249 3.6602 2.27306 5.48688 2.5735L455.487 76.5867C456.936 76.8251 458 78.0779 458 79.5469V267C458 268.657 456.657 270 455 270H4.99999C3.34313 270 2 268.657 2 267V5.53371Z" fill="white"/>
<path d="M5.64917 1.58676C3.2136 1.18617 1 3.06541 1 5.53371V267C1 269.209 2.79085 271 4.99999 271H455C457.209 271 459 269.209 459 267V79.5469C459 77.5883 457.582 75.9178 455.649 75.5999L5.64917 1.58676Z" stroke="#4465E8" stroke-opacity="0.2" stroke-width="2"/>
</svg>
