<svg width="24" height="24" viewBox="0 0 24 24" fill="none" xmlns="http://www.w3.org/2000/svg">
<path opacity="0.4" d="M4.00952 11.2904C4.04952 13.1606 4.16151 16.3595 4.1775 16.7123C4.2343 17.4666 4.52307 18.2289 4.97263 18.7665C5.59816 19.5208 6.36849 19.8576 7.44278 19.8576C8.92743 19.8656 10.5641 19.8656 12.1535 19.8656C13.7494 19.8656 15.298 19.8656 16.6059 19.8576C17.665 19.8576 18.4593 19.512 19.0768 18.7665C19.5264 18.2289 19.8152 17.4586 19.856 16.7123C19.872 16.4155 19.9519 12.943 19.9999 11.2904H4.00952Z" fill="white"/>
<path d="M11.405 14.7345V15.7696C11.405 16.1007 11.6737 16.3695 12.0049 16.3695C12.3361 16.3695 12.6048 16.1007 12.6048 15.7696V14.7345C12.6048 14.4033 12.3361 14.1345 12.0049 14.1345C11.6737 14.1345 11.405 14.4033 11.405 14.7345Z" fill="white"/>
<path fill-rule="evenodd" clip-rule="evenodd" d="M10.5778 14.0724C10.4978 14.3627 10.2186 14.5483 9.91626 14.5083C7.87566 14.2236 5.92545 13.4996 4.27922 12.4125C4.11043 12.3021 4.00964 12.1134 4.00964 11.9118V9.13926C4.00964 7.45942 5.37911 6.09316 7.06294 6.09316H8.63639C8.78677 4.93168 9.77067 4.02856 10.9722 4.02856H13.0375C14.2382 4.02856 15.2229 4.93168 15.3733 6.09316H16.9548C18.6338 6.09316 20.0001 7.45942 20.0001 9.13926V11.9118C20.0001 12.1134 19.8985 12.3013 19.7313 12.4125C18.0819 13.5044 16.1236 14.2316 14.0694 14.5155C14.0415 14.5195 14.0143 14.5211 13.9871 14.5211C13.7159 14.5211 13.4735 14.3379 13.4055 14.0692C13.2439 13.4324 12.6656 12.9869 12.0009 12.9869C11.3273 12.9869 10.7554 13.4228 10.5778 14.0724ZM13.0375 5.22848H10.9721C10.4338 5.22848 9.98423 5.59644 9.84984 6.09319H14.159C14.0246 5.59644 13.5751 5.22848 13.0375 5.22848Z" fill="white"/>
</svg>
