<svg width="19" height="12" viewBox="0 0 19 12" fill="none" xmlns="http://www.w3.org/2000/svg">
<path opacity="0.56" d="M18.5352 1.39844C18.6406 0.976562 18.5352 0.625 17.9023 0.625H15.8281C15.3008 0.625 15.0547 0.90625 14.9141 1.22266C14.9141 1.22266 13.8594 3.78906 12.3828 5.47656C11.8906 5.93359 11.6797 6.10938 11.3984 6.10938C11.293 6.10938 11.082 5.93359 11.082 5.51172V1.39844C11.082 0.871094 10.9414 0.625 10.4844 0.625H7.25C6.89844 0.625 6.72266 0.871094 6.72266 1.11719C6.72266 1.60938 7.46094 1.71484 7.53125 3.12109V6.17969C7.53125 6.84766 7.42578 6.98828 7.14453 6.98828C6.44141 6.98828 4.75391 4.38672 3.73438 1.43359C3.52344 0.871094 3.3125 0.625 2.78516 0.625H0.710938C0.148438 0.625 0.0078125 0.90625 0.0078125 1.22266C0.0078125 1.78516 0.710938 4.49219 3.27734 8.11328C5 10.5742 7.42578 11.875 9.60547 11.875C10.9062 11.875 11.082 11.5938 11.082 11.1016C11.082 8.74609 10.9766 8.5 11.6094 8.5C11.9258 8.5 12.4531 8.67578 13.6836 9.87109C15.0898 11.2773 15.3359 11.875 16.1094 11.875H18.1836C18.7812 11.875 19.0625 11.5938 18.8867 10.9961C18.5 9.80078 15.8633 7.26953 15.7227 7.09375C15.4062 6.70703 15.5117 6.53125 15.7227 6.17969C15.7227 6.17969 18.2539 2.59375 18.5352 1.39844Z" fill="#878A97"/>
</svg>
